<?xml version="1.0" standalone="no"?>
<!DOCTYPE svg PUBLIC "-//W3C//DTD SVG 20010904//EN"
 "http://www.w3.org/TR/2001/REC-SVG-20010904/DTD/svg10.dtd">
<svg version="1.0" xmlns="http://www.w3.org/2000/svg"
 width="240.000000pt" height="240.000000pt" viewBox="0 0 240.000000 240.000000"
 preserveAspectRatio="xMidYMid meet">
<metadata>
Created by potrace 1.11, written by Peter Selinger 2001-2013
</metadata>
<g transform="translate(0.000000,240.000000) scale(0.100000,-0.100000)"
fill="#000000" stroke="none">
<path d="M1585 2391 c-31 -13 -76 -62 -95 -105 -14 -30 -16 -46 -8 -74 8 -28
6 -43 -8 -72 -18 -36 -21 -38 -69 -39 -98 -2 -190 -26 -215 -55 -9 -12 -22
-15 -42 -10 -26 5 -35 0 -73 -40 -37 -40 -44 -44 -55 -31 -11 13 -38 15 -172
11 -197 -4 -190 0 -227 -152 -10 -39 -15 -78 -12 -87 8 -20 123 -140 185 -193
l49 -40 -32 -90 c-18 -49 -34 -96 -36 -104 -5 -21 -165 -443 -173 -455 -4 -5
-7 -12 -7 -15 -1 -8 -68 -173 -82 -200 -7 -14 -13 -28 -13 -32 0 -6 -27 -70
-60 -143 -5 -11 -19 -44 -30 -74 l-21 -55 20 -27 c12 -16 21 -31 21 -34 0 -10
43 -67 80 -104 42 -43 120 -96 167 -113 18 -7 33 -15 33 -18 0 -4 6 -7 13 -8
6 0 39 -7 72 -16 37 -9 92 -14 145 -12 98 4 220 32 220 51 0 7 16 50 35 94 19
45 32 81 29 81 -3 0 2 12 10 27 8 16 22 44 30 63 8 19 24 58 36 85 12 28 26
61 32 75 6 14 14 32 18 40 4 8 40 92 79 187 73 171 73 171 110 179 20 4 41 8
46 9 27 6 136 62 180 93 98 68 125 123 94 193 -19 41 -19 43 -2 53 9 5 34 26
55 46 43 41 55 93 35 142 -15 35 -68 91 -106 114 -37 22 -46 42 -28 63 13 14
24 45 33 89 2 12 9 19 95 89 53 44 74 82 63 115 -5 13 -9 25 -9 28 -12 45 -21
62 -45 85 -24 23 -38 27 -106 31 -43 3 -81 7 -83 10 -2 2 1 9 6 16 13 16 43
150 43 190 0 37 -15 65 -53 97 -49 42 -126 61 -172 42z"/>
</g>
</svg>
