<?xml version="1.0" standalone="no"?>
<!DOCTYPE svg PUBLIC "-//W3C//DTD SVG 20010904//EN"
 "http://www.w3.org/TR/2001/REC-SVG-20010904/DTD/svg10.dtd">
<svg version="1.0" xmlns="http://www.w3.org/2000/svg"
 width="130.000000pt" height="130.000000pt" viewBox="0 0 130.000000 130.000000"
 preserveAspectRatio="xMidYMid meet">
<metadata>
Created by potrace 1.11, written by Peter Selinger 2001-2013
</metadata>
<g transform="translate(0.000000,130.000000) scale(0.100000,-0.100000)"
fill="#000000" stroke="none">
<path d="M315 1262 c-37 -44 -75 -98 -75 -105 0 -3 7 -12 15 -21 14 -13 10
-20 -35 -65 -27 -27 -50 -56 -50 -63 0 -24 63 -53 125 -58 l60 -5 -49 -35
c-110 -78 -211 -167 -221 -194 -8 -23 -6 -30 8 -41 13 -9 16 -20 12 -38 -5
-20 -1 -28 30 -46 46 -27 83 -27 167 0 l66 22 39 -20 c25 -13 51 -19 69 -16
22 4 11 -8 -51 -49 -196 -130 -248 -175 -238 -206 3 -7 22 -22 44 -32 34 -18
46 -19 102 -10 35 5 108 24 161 41 54 17 99 29 101 27 2 -2 -25 -25 -60 -51
-76 -55 -86 -86 -35 -112 l31 -16 -20 -26 c-12 -14 -18 -30 -14 -36 4 -6 6
-25 5 -43 -2 -26 2 -33 25 -43 53 -22 76 -20 182 13 58 19 113 34 122 33 27
-1 89 43 89 63 0 10 -6 20 -12 22 -7 3 6 17 30 31 46 30 52 49 22 70 -25 17
-19 23 60 62 97 49 118 78 73 100 -20 11 -21 13 -6 28 15 15 15 18 0 41 -9 14
-14 31 -11 38 3 7 32 30 65 51 70 43 73 60 15 90 -36 19 -41 19 -85 4 -25 -9
-55 -17 -66 -19 -13 -2 -35 -30 -65 -84 -25 -44 -81 -137 -125 -207 -61 -97
-82 -124 -91 -114 -6 6 -40 57 -74 112 -35 55 -64 101 -65 103 -2 2 -20 -4
-40 -12 -59 -25 -74 -18 -28 12 24 15 43 31 43 35 0 4 -20 43 -45 86 -53 94
-92 188 -103 253 -27 146 38 271 180 345 45 23 65 27 138 28 73 0 93 -4 140
-27 96 -47 158 -123 184 -225 l11 -43 53 30 c39 23 52 36 52 54 0 18 -9 26
-42 37 -24 7 -52 12 -62 10 -30 -5 -9 17 79 80 45 32 75 60 75 71 0 10 -15 25
-37 36 -32 16 -54 19 -132 15 -75 -4 -97 -2 -105 9 -25 34 -60 42 -168 41 -58
-1 -124 -6 -145 -12 -21 -6 -60 -11 -86 -11 -26 0 -61 -7 -77 -15 -24 -12 -30
-13 -30 -2 0 11 -43 35 -80 43 -8 2 -29 -14 -45 -34z"/>
<path d="M658 1120 c-108 -33 -184 -149 -172 -263 2 -22 6 -43 9 -46 4 -3 25
5 48 18 82 46 119 62 135 58 10 -2 -23 -23 -81 -51 l-97 -46 14 -28 c19 -35
72 -85 115 -107 80 -40 202 -20 270 45 61 58 76 93 76 180 0 104 -42 177 -125
220 -31 16 -38 16 -55 4 -22 -16 -55 -19 -55 -4 0 6 7 11 15 11 28 3 33 4 39
10 9 9 -106 9 -136 -1z"/>
<path d="M1055 838 c-2 -7 -8 -29 -13 -48 -6 -19 -13 -43 -17 -52 -12 -30 12
-21 50 19 39 40 42 54 19 77 -19 19 -33 20 -39 4z"/>
</g>
</svg>
