<?xml version="1.0" encoding="utf-8"?>
<!-- Generator: Adobe Illustrator 16.0.0, SVG Export Plug-In . SVG Version: 6.00 Build 0)  -->
<!DOCTYPE svg PUBLIC "-//W3C//DTD SVG 1.1//EN" "http://www.w3.org/Graphics/SVG/1.1/DTD/svg11.dtd">
<svg version="1.1" id="Layer_1" xmlns="http://www.w3.org/2000/svg" xmlns:xlink="http://www.w3.org/1999/xlink" x="0px" y="0px"
	 width="48px" height="48px" viewBox="0 0 48 48" enable-background="new 0 0 48 48" xml:space="preserve">
<path d="M24,4c-7.73,0-14,6.27-14,14c0,10.5,14,26,14,26s14-15.5,14-26C38,10.27,31.73,4,24,4z M11.15,17.95
	c0-7.11,5.77-12.87,12.88-12.87S36.9,10.84,36.9,17.95c0,9.66-12.871,23.91-12.871,23.91S11.15,27.61,11.15,17.95z"/>
<polygon display="none" points="20.78,25.98 15.16,20.34 16.57,18.92 20.78,23.11 31.43,12.46 32.84,13.9 "/>
<polygon points="32.84,13.9 20.78,25.98 15.16,20.34 16.57,18.92 20.78,23.11 31.43,12.46 "/>
<path display="none" d="M36.9,17.95c0,9.66-12.871,23.91-12.871,23.91S11.15,27.61,11.15,17.95c0-7.11,5.77-12.87,12.88-12.87
	S36.9,10.84,36.9,17.95z"/>
</svg>
