<?xml version="1.0" encoding="utf-8"?>
<!-- Generator: Adobe Illustrator 16.0.0, SVG Export Plug-In . SVG Version: 6.00 Build 0)  -->
<!DOCTYPE svg PUBLIC "-//W3C//DTD SVG 1.1//EN" "http://www.w3.org/Graphics/SVG/1.1/DTD/svg11.dtd">
<svg version="1.1" id="Layer_1" xmlns="http://www.w3.org/2000/svg" xmlns:xlink="http://www.w3.org/1999/xlink" x="0px" y="0px"
	 width="36px" height="36px" viewBox="0 12 36 36" enable-background="new 0 12 36 36" xml:space="preserve">
<path fill="#ffffff" d="M29.5,26.16c0,2.77-0.96,5.32-2.56,7.3L26.49,34l-4.52,5.33L18,44.01l-3.97-4.68L9.51,34l-0.45-0.54
	c-1.6-1.979-2.56-4.53-2.56-7.3c0-6.41,5.15-11.61,11.5-11.61S29.5,19.75,29.5,26.16z"/>
<line fill="none" x1="18" y1="47.312" x2="7.288" y2="34.794"/>
<path d="M18,12.34c-7.61,0-13.78,6.17-13.78,13.78c0,3.29,1.15,6.31,3.07,8.67l0.54,0.63c1.66,1.82,3.79,3.18,6.2,3.91L9.51,34
	l-0.45-0.54c-1.6-1.979-2.56-4.53-2.56-7.3c0-6.41,5.15-11.61,11.5-11.61s11.5,5.2,11.5,11.61c0,2.77-0.96,5.32-2.56,7.3L26.49,34
	l-4.52,5.33c2.41-0.73,4.54-2.09,6.2-3.91l0.54-0.63c1.92-2.36,3.07-5.38,3.07-8.67C31.78,18.51,25.61,12.34,18,12.34z M21.97,39.33
	L18,44.01l-3.97-4.68c-2.41-0.73-4.54-2.09-6.2-3.91L18,47.31l10.17-11.89C26.51,37.24,24.38,38.6,21.97,39.33z"/>
<path d="M15.698,30.734l-3.696-3.695l-1.254,1.253l4.95,4.95l10.634-10.635l-1.254-1.254L15.698,30.734z"/>
</svg>
